<svg width="44" height="44" viewBox="0 0 44 44" fill="none" xmlns="http://www.w3.org/2000/svg">
<path d="M9.79688 24.5781C4.4422 24.5781 0.0859375 28.9344 0.0859375 34.2891C0.0859375 39.6437 4.4422 44 9.79688 44C15.1516 44 19.5078 39.6437 19.5078 34.2891C19.5078 28.9344 15.1516 24.5781 9.79688 24.5781ZM9.79688 41.4219C5.86377 41.4219 2.66406 38.2222 2.66406 34.2891C2.66406 30.356 5.86377 27.1562 9.79688 27.1562C13.73 27.1562 16.9297 30.356 16.9297 34.2891C16.9297 38.2222 13.73 41.4219 9.79688 41.4219Z" fill="#55A8CE"/>
<path d="M10.2266 33.8594V29.9922H7.64844V36.4375H14.0938V33.8594H10.2266Z" fill="#55A8CE"/>
<path d="M9.79688 24.5781C4.4422 24.5781 0.0859375 28.9344 0.0859375 34.2891C0.0859375 39.6437 4.4422 44 9.79688 44C15.1516 44 19.5078 39.6437 19.5078 34.2891C19.5078 28.9344 15.1516 24.5781 9.79688 24.5781ZM9.79688 41.4219C5.86377 41.4219 2.66406 38.2222 2.66406 34.2891C2.66406 30.356 5.86377 27.1562 9.79688 27.1562C13.73 27.1562 16.9297 30.356 16.9297 34.2891C16.9297 38.2222 13.73 41.4219 9.79688 41.4219Z" fill="#55A8CE"/>
<path d="M42.7109 20.7109C32.0017 20.7109 23.2891 11.9983 23.2891 1.28906V0H22C16.1236 0 10.5989 2.28843 6.44359 6.44359C2.28843 10.5989 0 16.1236 0 22C0 23.4713 0.144977 24.9226 0.429859 26.3437C2.6858 23.6882 6.04768 22 9.79688 22C16.5731 22 22.0859 27.5128 22.0859 34.2891C22.0859 38.0073 20.4258 41.3449 17.8081 43.6003C19.1811 43.8655 20.5816 44 22 44C27.8764 44 33.4011 41.7116 37.5564 37.5564C41.7116 33.4011 44 27.8764 44 22V20.7109H42.7109Z" fill="#55A8CE"/>
</svg>
