<svg width="44" height="44" viewBox="0 0 44 44" fill="none" xmlns="http://www.w3.org/2000/svg">
<path d="M13.3213 4.74823C12.3978 4.74823 11.5122 5.11504 10.8593 5.76798C10.2063 6.42093 9.83943 7.30651 9.83939 8.22994C9.83939 8.68719 9.92944 9.13996 10.1044 9.5624C10.2794 9.98485 10.5359 10.3687 10.8592 10.692C11.1825 11.0153 11.5664 11.2718 11.9888 11.4468C12.4112 11.6218 12.864 11.7118 13.3213 11.7118C13.7785 11.7119 14.2314 11.6218 14.6538 11.4469C15.0763 11.2719 15.4602 11.0155 15.7836 10.6921C16.1069 10.3688 16.3634 9.98495 16.5384 9.56248C16.7134 9.14002 16.8035 8.68722 16.8035 8.22994C16.8035 7.60479 16.6351 6.99119 16.3162 6.45354C15.9972 5.91589 15.5393 5.47404 14.9907 5.17438C14.4786 4.89472 13.9046 4.74821 13.3212 4.7483L13.3213 4.74823ZM31.6228 10.0187C30.3453 10.0187 29.2612 10.8356 28.8567 11.9743V11.9917C28.7502 12.2954 28.6892 12.6209 28.6892 12.9613C28.6892 13.0135 28.689 13.0625 28.6996 13.1187L28.0572 17.659L28.1182 17.6286C27.1438 18.5555 26.5352 19.8629 26.5352 21.3201V35.3005C26.5352 36.3653 26.8584 37.3515 27.4128 38.1672L27.4954 39.2538L35.9295 39.2544V38.2762C36.4834 37.4605 36.7249 24.5037 36.7249 23.4391V21.3205C36.7249 20.0459 36.2617 18.8839 35.4939 17.9921L34.5686 12.9948C34.5687 12.9839 34.5686 12.973 34.5686 12.9611C34.5685 11.8866 33.9814 10.8979 33.0384 10.3826H33.028C32.596 10.1461 32.1114 10.0222 31.6189 10.0223L31.6228 10.0187ZM13.3213 12.0962C9.97692 12.0962 7.2846 14.7885 7.2846 18.1329V20.6438C7.2846 21.9054 7.66771 23.0741 8.3244 24.0407V39.2534L18.3185 39.254V24.0402C18.9751 23.0738 19.3584 21.9059 19.3584 20.6444V18.1335C19.3584 15.9387 18.1992 14.0247 16.4568 12.9681C15.5441 12.4151 14.4709 12.0963 13.3214 12.0963L13.3213 12.0962ZM22.4563 22.0733C21.4805 22.0733 20.6896 22.8642 20.6896 23.8401C20.6897 24.6275 21.2049 25.2943 21.9167 25.5224C20.4792 25.7763 19.3929 27.023 19.3929 28.5354V29.8097C19.3929 30.45 19.5874 31.0431 19.9207 31.5337V39.2533L24.9921 39.2538V31.5331C25.3251 31.0426 25.5199 30.4497 25.5199 29.8096V28.5358C25.5199 27.422 24.9319 26.4508 24.0477 25.9147C23.7316 25.7232 23.3765 25.5885 22.9982 25.5212C23.7088 25.2925 24.2235 24.6266 24.2236 23.84C24.2235 23.1938 23.8705 22.5994 23.3034 22.2896C23.0436 22.1475 22.7524 22.0732 22.4563 22.0732L22.4563 22.0733Z" fill="#CF8A45"/>
</svg>
