<svg width="44" height="44" viewBox="0 0 44 44" fill="none" xmlns="http://www.w3.org/2000/svg">
<path d="M41.4219 15.5547V12.9766H2.66406V15.5547H10.3984V18.1328H2.66406V33.6016H9.10938V20.7109H22V33.6016H41.4219V18.1328H36.1797V15.5547H41.4219ZM18.1328 18.1328H12.9766V15.5547H18.1328V18.1328ZM25.8672 18.1328H20.7109V15.5547H25.8672V18.1328ZM33.6016 18.1328H28.4453V15.5547H33.6016V18.1328Z" fill="#8C8C8C"/>
<path d="M2.66406 2.66406H41.4219V10.3984H2.66406V2.66406Z" fill="#8C8C8C"/>
<path d="M11.6875 23.2891H19.4219V41.3359H11.6875V23.2891Z" fill="#8C8C8C"/>
<path d="M44 38.7578H41.4219V36.1797H22V41.3359H44V38.7578Z" fill="#8C8C8C"/>
<path d="M0 41.3359H9.10938V36.1797H2.66406V38.7578H0V41.3359Z" fill="#8C8C8C"/>
</svg>
