<svg id="Layer_1" data-name="Layer 1" xmlns="http://www.w3.org/2000/svg" viewBox="0 0 88.67 122.88"><defs><style>.cls-1{fill:#56b320;}.cls-1,.cls-2,.cls-3{fill-rule:evenodd;}.cls-2{fill:#4da11d;}.cls-3{fill:#8c5d0f;}.cls-4{fill:#af7311;}</style></defs><title>pine-tree</title><path class="cls-1" d="M19.62,27,39.12,3.85C40.45,2.27,41.88,0,44.19,0c2,.05,3.2,1.94,4.38,3.32L69.32,27.51c2.25,3.23.33,6.62-3.6,6.62h-5.6L81.38,59.05c2.55,2.52,1.25,6.57-1.68,7.12H67.34L85.88,87.92l2,2.38c1.55,1.77.77,5.83-2.57,6.23H5.14c-5.21.48-6.27-3.64-4-7.06L21,66.17l-.57-.57H9.77c-3.85.57-5.28-3.61-2.94-6.54L28.24,33.91H22c-3.92.1-4.89-3.5-2.37-6.9Z"/><path class="cls-2" d="M42.52.4A3.49,3.49,0,0,1,44.19,0c2,.05,3.2,1.94,4.38,3.32L69.32,27.51c2.25,3.23.33,6.62-3.6,6.62h-5.6L81.38,59.05c2.55,2.52,1.25,6.57-1.68,7.12H67.34L85.88,87.92l2,2.38c1.55,1.77.77,5.83-2.57,6.23H62.22L42.52.4Z"/><polygon class="cls-3" points="51.94 96.53 57.48 122.88 30.71 122.88 36.26 96.53 51.94 96.53 51.94 96.53"/><polygon class="cls-4" points="39.34 111.21 38.22 117.64 38.01 118.86 36.83 118.7 34.97 118.46 35.4 116.03 36.08 116.12 36.99 110.91 39.34 111.22 39.34 111.21 39.34 111.21"/><polygon class="cls-4" points="41.01 99.14 39.53 108.68 37.18 108.42 38.66 98.88 41.01 99.14 41.01 99.14 41.01 99.14"/></svg>