<?xml version="1.0" encoding="utf-8"?><svg version="1.1" id="Layer_1" xmlns="http://www.w3.org/2000/svg" xmlns:xlink="http://www.w3.org/1999/xlink" x="0px" y="0px" viewBox="0 0 122.88 121.4" style="enable-background:new 0 0 122.88 121.4" xml:space="preserve"><style type="text/css"><![CDATA[
	.st0{fill-rule:evenodd;clip-rule:evenodd;}
]]></style><g><path class="st0" d="M27.35,76.84h12.58c-9.18-17.91,10.88-21.53,18.94-32.08v-2.23c-0.73-0.13-1.46-0.39-2.16-0.8 c-1.56-0.9-2.56-2.22-3.02-3.94c-0.46-1.72-0.23-3.37,0.68-4.94c0.67-1.15,1.68-2.06,3.05-2.69c-1.66,1.88-2.78,3.14-2.04,5.93 c0.4,1.49,1.27,2.64,2.62,3.4c1.33,0.77,2.75,0.96,4.24,0.56c2.82-0.73,3.32-2.34,4.12-4.74l0,0c0.04,0.7,0.04,1.14,0.03,1.35 c-0.08,0.96-0.37,1.85-0.85,2.69c-0.89,1.55-2.21,2.56-3.93,3.01c-0.12,0.04-0.23,0.06-0.35,0.08v2.34 c8.31,11.3,27.44,14.42,18.93,32.04h12.7V63.14l-2.86-10.67h3.3v-10.7l7.27-21.89v-6.3c0-0.8,0.64-1.44,1.44-1.44 c0.8,0,1.44,0.64,1.44,1.44v5.34l7.72,22.85v10.7h3.67l-3.56,10.67v19.07c4.06-5.51,7.56-12.08,11.57-19.51l0,0 c-0.78,6.57-1.42,10.8-1.9,12.67c-2.3,8.8-6.4,16.75-12.26,23.81c-10.86,13.08-24.73,20.37-41.6,21.92 c-16.87,1.56-31.82-3.08-44.89-13.95C9.07,96.23,1.75,82.34,0.26,65.46c-1.48-16.88,3.27-31.94,14.27-45.19 C22.62,10.54,33.58,3.78,47.39,0C28.85,14.94,16.35,25.02,18.84,52.24C19.69,61.48,22.53,69.68,27.35,76.84L27.35,76.84z M60.04,34.5l0.94-1.63l-1.25-1.4l1.83,0.39l0.94-1.63l0.2,1.87l1.84,0.4l-1.72,0.76l0.2,1.87l-1.27-1.4L60.04,34.5L60.04,34.5 L60.04,34.5L60.04,34.5z M99.15,44.75h6.66v5.25h-6.66V44.75L99.15,44.75L99.15,44.75z"/></g></svg>