<?xml version="1.0" encoding="utf-8"?><svg version="1.1" id="Layer_1" xmlns="http://www.w3.org/2000/svg" xmlns:xlink="http://www.w3.org/1999/xlink" x="0px" y="0px" viewBox="0 0 121.86 122.88" style="enable-background:new 0 0 121.86 122.88" xml:space="preserve"><g><path d="M98.52,110.47c-5.55,3.6-9.21,5.81-10.96,6.63c-8.24,3.85-16.97,5.78-26.15,5.78c-17,0-31.47-6.01-43.45-17.99 C5.98,92.91,0,78.44,0,61.44C0,44.33,6.01,29.83,18.04,17.9C30.08,5.98,44.7,0,61.92,0c12.66,0,24.87,4.11,36.6,12.32 C75.18,7.61,59.44,4.43,40.08,23.74c-10.4,10.4-15.61,22.97-15.61,37.7c0,14.62,5.18,27.16,15.55,37.62 C59.44,118.68,75.05,115.18,98.52,110.47L98.52,110.47z M75.09,54.39h17.85l5.58-16.97l5.47,16.97h17.87l-14.45,10.45l5.47,17.05 L98.52,71.41L84.04,81.89l5.5-17.05L75.09,54.39L75.09,54.39z"/></g></svg>