<svg id="Layer_1" data-name="Layer 1" xmlns="http://www.w3.org/2000/svg" viewBox="0 0 106.11 122.88"><defs><style>.cls-1{fill-rule:evenodd;}</style></defs><title>secure</title><path class="cls-1" d="M56.36,2.44A104.34,104.34,0,0,0,79.77,13.9a48.25,48.25,0,0,0,19.08,2.57l6.71-.61.33,6.74c1.23,24.79-2.77,46.33-11.16,63.32C86,103.6,72.58,116.37,55.35,122.85l-4.48,0c-16.84-6.15-30.16-18.57-39-36.47C3.62,69.58-.61,47.88.07,22l.18-6.65,6.61.34A64.65,64.65,0,0,0,28.23,13.5,60.59,60.59,0,0,0,48.92,2.79L52.51,0l3.85,2.44ZM52.93,19.3C66.46,27.88,78.68,31.94,89.17,31,91,68,77.32,96.28,53.07,105.41c-23.43-8.55-37.28-35.85-36.25-75,12.31.65,24.4-2,36.11-11.11ZM45.51,61.61a28.89,28.89,0,0,1,2.64,2.56,104.48,104.48,0,0,1,8.27-11.51c8.24-9.95,5.78-9.3,17.21-9.3L72,45.12a135.91,135.91,0,0,0-11.8,15.3,163.85,163.85,0,0,0-10.76,17.9l-1,1.91-.91-1.94a47.17,47.17,0,0,0-6.09-9.87,33.4,33.4,0,0,0-7.75-7.12c1.49-4.89,8.59-2.38,11.77.31Zm7.38-53.7c17.38,11,33.07,16.22,46.55,15,2.35,47.59-15.23,82.17-46.37,93.9C23,105.82,5.21,72.45,6.53,22.18,22.34,23,37.86,19.59,52.89,7.91Z"/></svg>