<svg id="Layer_1" data-name="Layer 1" xmlns="http://www.w3.org/2000/svg" viewBox="0 0 122.88 121.47"><defs><style>.cls-1{fill-rule:evenodd;}</style></defs><title>vaccination</title><path class="cls-1" d="M19,99,2.47,82.53a8.44,8.44,0,0,1,0-11.93l.14-.15a8.45,8.45,0,0,1,11.8.14l.91.9L25.63,61.18l-7.84-7.83a2.18,2.18,0,1,1,3.08-3.09l2.89,2.89L59.11,17.81c4.63-4.63,10.69-4.46,16-1.7a22,22,0,0,1,3.73,2.48L96.68.74a2.55,2.55,0,0,1,3.6,3.6L82.38,22.23a22.87,22.87,0,0,1,2.33,3.61l.08.18c2.78,5.59,2.9,12.07-2.07,17L48.19,77.58l2.57,2.57a2.18,2.18,0,0,1-3.09,3.08L40,75.59,29.71,85.9,31,87.22A8.44,8.44,0,0,1,19,99ZM88.09,79.57a40,40,0,0,1,.08-4.92c.71-6.12,6.4-10.81,9.91-15.75h11c3.44,4.8,9.85,9.87,10,15.8l.1,4.87L118.79,111c0,.93,0,.67,0,1.6a5.3,5.3,0,0,1-1.18,3.66,6,6,0,0,1-3.6,1.16l-21.76-.08A4.56,4.56,0,0,1,89,116.28a3.71,3.71,0,0,1-1.14-2.55l-.08-2.7.32-31.46Zm8.1,28.08c-.82,0-2.09-.67-2.09-1.49s1.27-1.5,2.09-1.5H111a1.5,1.5,0,1,1,0,3Zm0-6.68c-.82,0-2.09-.67-2.09-1.49S95.37,98,96.19,98H111a1.5,1.5,0,1,1,0,3Zm5.69-25.89h3.42a1.17,1.17,0,0,1,1.16,1.17v5.09h5.1a1.17,1.17,0,0,1,1.16,1.16v3.42a1.17,1.17,0,0,1-1.16,1.17h-5.1v5.09a1.16,1.16,0,0,1-1.16,1.16h-3.42a1.16,1.16,0,0,1-1.16-1.16V87.09H95a1.18,1.18,0,0,1-1.17-1.17V82.5A1.17,1.17,0,0,1,95,81.34h5.69V76.25a1.17,1.17,0,0,1,1.16-1.17ZM91.79,46.28h24.1a4.63,4.63,0,0,1,4.61,4.61v3.24a4.63,4.63,0,0,1-4.61,4.6h-2.07c4.07,5.57,9.13,9,9,16.62v37.9h0c.13,2.69-.41,4.87-1.85,6.34s-3.69,2.14-7,1.79H91.84a6.45,6.45,0,0,1-7.48-6.78V76.92c-.54-8.57,4.37-11.93,9-18.19H91.79a4.61,4.61,0,0,1-4.6-4.6V50.89a4.61,4.61,0,0,1,4.6-4.61ZM102.88,5.57C103,15,108,19,108,22.89s-1.66,7.85-6.77,7.85-6.77-3.93-6.77-7.85c0-1.48,7-15.92,8.38-17.32ZM71.29,48.32l-9.13-9.13A2,2,0,0,1,65,36.34l9.13,9.13L79.63,40c3.41-3.42,3.27-8,1.28-12l-.09-.15a18.7,18.7,0,0,0-3.3-4.54A18,18,0,0,0,73.09,20c-3.7-1.93-7.86-2.13-10.9.92L26.93,56.16,45.19,74.42l5.91-5.91L42,59.38a2,2,0,0,1,2.84-2.84L54,65.66l3.88-3.88L48.7,52.65a2,2,0,1,1,2.85-2.85l9.13,9.13,3.88-3.88-9.13-9.13a2,2,0,0,1,2.85-2.85l9.13,9.13,3.88-3.88Z"/></svg>