<svg id="Layer_1" data-name="Layer 1" xmlns="http://www.w3.org/2000/svg" viewBox="0 0 121.28 122.88"><title>connect-people</title><path d="M50.51,46,64,37a27.93,27.93,0,1,1,6.68,10.72c-.43-.44-.85-.89-1.25-1.35L55.1,55.93a27.8,27.8,0,0,1,.76,6.5,28.37,28.37,0,0,1-.34,4.35L71.67,77.34A27.77,27.77,0,1,1,66.58,87L51.64,77.19a27.93,27.93,0,1,1-4-34.51A29.78,29.78,0,0,1,50.51,46ZM41.4,74.84a19,19,0,0,1-26.93,0L12.8,72.65,14,71.71c2.5-1.48,6.27-1.09,8.73-2.81A7.08,7.08,0,0,0,23.2,68c.23-.53.44-1.1.57-1.49a18.85,18.85,0,0,1-1.49-2.13L20.77,62a4.38,4.38,0,0,1-.86-2.2,1.69,1.69,0,0,1,.15-.79,1.42,1.42,0,0,1,.52-.6,1.55,1.55,0,0,1,.36-.19,38.65,38.65,0,0,1-.07-4.32,5.47,5.47,0,0,1,.19-1,5.78,5.78,0,0,1,2.55-3.26,8.37,8.37,0,0,1,2.14-.95c.48-.13-.41-1.67.09-1.72,2.4-.25,6.29,1.94,8,3.76a5.91,5.91,0,0,1,1.49,3.71l-.1,3.92h0a1.09,1.09,0,0,1,.8.82,3.4,3.4,0,0,1-.42,2.07h0l0,0-1.72,2.84a14.89,14.89,0,0,1-2.12,2.91l.23.33a10.22,10.22,0,0,0,1.12,1.45l0,0c2,1.41,6.81,1.75,8.67,2.78l.07,0,1.22,1a22.07,22.07,0,0,1-1.66,2.16ZM44,46.37a22.72,22.72,0,1,0,6.65,16.06A22.64,22.64,0,0,0,44,46.37Zm63.09,60.25c-5.76,6.39-21.5,6.83-27.43.52l0,0V105.8c0-3.44,5.72-3.5,8.77-5.33,2-1.21,1.68-2.43,1.67-4.44H86.85c-8.32,0-2.84.66-1.71-8.39,1.69-12.77,14.56-12.78,16.46,0C102.82,96.35,108,96,99.89,96H96.64c0,2.22-.36,3.35,1.94,4.6s8.5,1.88,8.5,5v1Zm2.33-27.73A22.72,22.72,0,1,0,116.06,95a22.64,22.64,0,0,0-6.65-16.06Zm-5.47-39.82a19,19,0,0,1-26.93,0l-1.67-2.18L76.56,36c2.5-1.48,6.27-1.09,8.73-2.81a7,7,0,0,0,.46-.88c.23-.53.43-1.1.57-1.49a18.56,18.56,0,0,1-1.5-2.13l-1.51-2.4a4.47,4.47,0,0,1-.86-2.2,1.69,1.69,0,0,1,.15-.79,1.37,1.37,0,0,1,.52-.6,1.43,1.43,0,0,1,.37-.19,36.43,36.43,0,0,1-.07-4.32,5.45,5.45,0,0,1,.18-1,5.76,5.76,0,0,1,2.56-3.26,7.9,7.9,0,0,1,2.14-1c.48-.14-.41-1.67.08-1.72,2.41-.25,6.29,1.94,8,3.76a5.82,5.82,0,0,1,1.48,3.7l-.09,3.93h0a1.1,1.1,0,0,1,.79.82,3.46,3.46,0,0,1-.41,2.07h0l0,0L96.37,28.4a14.49,14.49,0,0,1-2.12,2.91l.23.33a10.3,10.3,0,0,0,1.13,1.45s0,0,0,0c2,1.4,6.82,1.74,8.67,2.78l.08,0,1.22,1a22,22,0,0,1-1.67,2.15Zm2.59-27.2a22.72,22.72,0,1,0,6.65,16.06,22.64,22.64,0,0,0-6.65-16.06Z"/></svg>